inDegrees=yes
name=ik_MT_012005D6_009-001_orientations
DataType=double
version=3
OpenSimVersion=4.4-2022-07-23-0e9fedc
endheader
time	pelvis_tilt	pelvis_list	pelvis_rotation	pelvis_tx	pelvis_ty	pelvis_tz	hip_flexion_r	hip_adduction_r	hip_rotation_r	knee_angle_r	knee_angle_r_beta	ankle_angle_r	subtalar_angle_r	mtp_angle_r	hip_flexion_l	hip_adduction_l	hip_rotation_l	knee_angle_l	knee_angle_l_beta	ankle_angle_l	subtalar_angle_l	mtp_angle_l	lumbar_extension	lumbar_bending	lumbar_rotation	arm_flex_r	arm_add_r	arm_rot_r	elbow_flex_r	pro_sup_r	wrist_flex_r	wrist_dev_r	arm_flex_l	arm_add_l	arm_rot_l	elbow_flex_l	pro_sup_l	wrist_flex_l	wrist_dev_l
0	0	0	0	0	0.93	0	0	0	0	0	0	0	0	0	0	0	0	0	0	0	0	0	0	0	0	0	0	0	0	0	0	0	0	0	0	0	0	0	0
0.01	0.0007956141380900492	-0.001596261801560975	0.007218019139549282	3.4079419941504e-43	0.9300000000000005	9.953657169462802e-31	0.3557173812352896	-0.0040918715995188	-0.1194556449166849	0.6616506001250144	0.01154798146995016	0.3265571950730007	-1.441884935450171e-11	-4.075757566765078e-12	0.3591352721865285	0.002977310726751849	-0.106382484628509	0.6630420455234851	0.01157226677354744	0.3204592141344955	3.371884846859644e-12	-2.051518450630182e-11	3.242366343297383e-12	1.69328274122489e-12	7.073736307220119e-13	3.957908566637606e-12	-5.026513910018295e-22	-9.745491649562541e-13	2.199171762224396e-05	2.224451422878779e-05	1.889285684978951e-16	4.243732385836931e-15	-9.098305848770064e-12	-2.093834284026458e-12	6.6153487988821e-12	2.227251755358596e-05	2.224451425021278e-05	4.635495484682567e-14	-2.865267649089676e-14
0.02	0.007566182602425096	-0.01047375916567625	0.009104008445406387	0	0.93	0	0.3527704653097772	-0.007087999182748234	-0.1212976914976287	0.6614325635612481	0.01154417601405045	0.3264084084659138	0	0	0.3604753172505553	0.002621322317212588	-0.1074632311328958	0.661980629126678	0.01155374156268401	0.3206443548263204	0	0	0	0	0	0	0	0	0	0	0	0	0	0	0	0	0	0	0
0.03	0.01453395717752546	-0.01671532788209422	0.01105510532330668	0	0.93	0	0.3484640910963194	-0.008501963064894355	-0.1224955757499683	0.6617110681282526	0.01154903683572652	0.3255344645698915	0	0	0.3625979156058692	0.003778821062866257	-0.107185563377314	0.6612074832466723	0.01154024762147968	0.319205216960414	0	0	0	0	0	0	0	0	2.426570649309934e-20	2.426570649309934e-20	0	0	0	0	0	2.426570649309934e-20	2.426570649309934e-20	0	0
0.04	0.02148913603661654	-0.02227887160467967	0.01239062472563234	0	0.93	0	0.3428476199928991	-0.0100289787204787	-0.1242237068406745	0.6623180508964451	0.01155963068353435	0.3246052591780061	-2.203526963039926e-32	0	0.3655480533076843	0.004924284788563508	-0.1075472946133441	0.6601811885783464	0.01152233540042173	0.3165796590872895	0	0	0	0	-1.102775422163579e-32	0	0	0	2.426570649309934e-20	2.426570649309934e-20	0	0	0	0	0	2.426570649309934e-20	2.426570649309934e-20	0	0
0.05	0.02785790499309537	-0.02804163481175214	0.01415557551395365	0	0.93	0	0.3373234980614161	-0.011253165674586	-0.1260393719694128	0.6628560122439444	0.01156901988029668	0.3236479891168339	-2.181493874903451e-36	0	0.36810123306739	0.006933904472651934	-0.1080955765365758	0.659085351016631	0.01150320942690277	0.3127173659145797	0	0	0	0	-1.09174875969072e-36	0	0	0	2.426570649309934e-20	2.426570649309934e-20	0	0	0	0	0	2.426570649309934e-20	2.426570649309934e-20	0	0
0.06	0.03394925962045209	-0.03374004505275596	0.01566342839361656	0	0.93	0	0.332214511048442	-0.01241621452141361	-0.1280115442395095	0.6632707747908828	0.01157625885235471	0.3228851106177206	-1.095329314611839e-55	0	0.3703307567745668	0.009077456684942305	-0.1097511605022292	0.6576735483579895	0.01147856882212106	0.3078775114617937	0	0	0	0	-5.476646573059195e-56	0	0	0	2.426570649309934e-20	2.426570649309934e-20	0	0	0	0	0	2.426570649309934e-20	2.426570649309934e-20	0	0
0.07000000000000001	0.03949733953414241	-0.03948420512070659	0.01708287847326024	0	0.93	0	0.327728986485524	-0.01374055076368044	-0.1297114157323081	0.6636615310878365	0.01158307883630945	0.3220850806586086	-3.958528074964048e-75	0	0.3721664339659077	0.01170357309360503	-0.1115399698479404	0.6558549169274563	0.01144682771577801	0.3021182737437036	0	0	0	0	-1.979264037482024e-75	0	0	0	2.426570649309934e-20	2.426570649309934e-20	0	0	0	0	0	2.426570649309934e-20	2.426570649309934e-20	0	0
0.08	0.04476728168861219	-0.04451514473017207	0.01858031802591467	0	0.93	0	0.3243827337741061	-0.01523724629092464	-0.1314202319674059	0.6639568221464247	0.01158823263753352	0.3212188390939276	-1.609441777020331e-94	0	0.3737520078482835	0.01461621982174128	-0.1137657536954728	0.6536659377821521	0.01140862282243495	0.2957559715546371	0	0	0	0	-8.047208885101656e-95	0	0	0	2.426570649309934e-20	2.426570649309934e-20	0	0	0	0	0	2.426570649309934e-20	2.426570649309934e-20	0	0
0.09	0.05063930023641505	-0.04967948003991352	0.02084374414406145	0	0.93	0	0.3225153628842604	-0.01796051065333038	-0.1331128010170889	0.6671715080108974	0.01164433949028588	0.3201767738915421	-5.816534237114579e-114	0	0.3752647896565413	0.01788187456599394	-0.1156847222129892	0.6552178713784085	0.01143570917346194	0.2885042542525132	0	0	0	0	-2.90826711855729e-114	0	0	0	2.426570649309934e-20	2.426570649309934e-20	0	0	0	0	0	2.426570649309934e-20	2.426570649309934e-20	0	0
0.09999999999999999	0.05115679220520587	-0.05507150184911913	0.02174308790269343	0	0.93	0	0.3214027905419686	-0.02098933927289471	-0.13517670299426	0.6668625282478456	0.0116389467760986	0.3197363713836382	-2.364862146080979e-133	0	0.3768560853109463	0.02075688555012834	-0.1182348757314279	0.651944161625119	0.01137857215951239	0.2822733278247943	0	0	0	0	-1.182431073040489e-133	0	0	0	2.426570649309934e-20	2.426570649309934e-20	0	0	0	0	0	2.426570649309934e-20	2.426570649309934e-20	0	0
0.11	0.05049778982239908	-0.05879631667021187	0.02417463744719989	0	0.93	0	0.3212049723400831	-0.02396305909766001	-0.1362795362906291	0.6664427495739839	0.01163162025611006	0.3195295553555588	-8.546628921365765e-153	0	0.3799144154988021	0.02425616343524108	-0.1193437085022084	0.6486875212298311	0.01132173306206117	0.2759320158775191	0	0	0	0	-4.273314460682882e-153	0	0	0	2.426570649309934e-20	2.426570649309934e-20	0	0	0	0	0	2.426570649309934e-20	2.426570649309934e-20	0	0
0.12	0.0509066184035574	-0.06184095957864411	0.02557379946612465	0	0.93	0	0.3215896896279758	-0.0273303434996551	-0.1374001117860524	0.666105929534477	0.01162574163743396	0.3191411270993885	-8.461171093323278e-157	0	0.3843246307298533	0.02808340434006019	-0.1198966415865574	0.6456009403849936	0.01126786206368977	0.269535645866898	0	0	0	0	-4.230585546661639e-157	0	0	0	2.426570649309934e-20	2.426570649309934e-20	0	0	0	0	0	2.426570649309934e-20	2.426570649309934e-20	0	0
0.13	0.04765566901226296	-0.06468621955706104	0.02768944404103165	0	0.93	0	0.3225183274307951	-0.03158381740498598	-0.1383399632356248	0.6655395112087016	0.01161585577270555	0.3187840368210737	-4.241763447863253e-176	0	0.3905174202973999	0.03256441324053949	-0.1197041332484777	0.6425249006248578	0.01121417504195314	0.2628737078753425	0	0	0	0	-2.120881723931627e-176	0	0	0	2.426570649309934e-20	2.426570649309934e-20	0	0	0	0	0	2.426570649309934e-20	2.426570649309934e-20	0	0
0.14	0.04483936544196384	-0.06647757867133879	0.02795805456197216	0	0.93	0	0.3237844841413909	-0.03640832156115941	-0.1391117762124451	0.6677194312411522	0.01165390255470199	0.3187376663920171	-1.532976381780981e-195	0	0.3983339147327941	0.03686817199305811	-0.1197138093997024	0.6435404173519356	0.01123189915244972	0.2562957601528452	0	0	0	0	-7.664881908904905e-196	0	0	0	2.426570649309934e-20	2.426570649309934e-20	0	0	0	0	0	2.426570649309934e-20	2.426570649309934e-20	0	0
